<?xml version="1.0" encoding="UTF-8" standalone="no"?>
<!DOCTYPE svg PUBLIC "-//W3C//DTD SVG 1.1//EN"
 "http://www.w3.org/Graphics/SVG/1.1/DTD/svg11.dtd">
<!-- Generated by graphviz version 2.38.0 (20140413.2041)
 -->
<!-- Title: controllers_diagram Pages: 1 -->
<svg width="424pt" height="532pt"
 viewBox="0.00 0.00 423.54 531.50" xmlns="http://www.w3.org/2000/svg" xmlns:xlink="http://www.w3.org/1999/xlink">
<g id="graph0" class="graph" transform="scale(1 1) rotate(0) translate(163.821 351.5)">
<title>controllers_diagram</title>
<polygon fill="white" stroke="none" points="-163.821,180 -163.821,-351.5 259.72,-351.5 259.72,180 -163.821,180"/>
<!-- _diagram_info -->
<g id="node1" class="node"><title>_diagram_info</title>
<text text-anchor="start" x="88.2798" y="130.4" font-family="Times,serif" font-size="13.00">Controllers diagram</text>
<text text-anchor="start" x="88.2798" y="143.4" font-family="Times,serif" font-size="13.00">Date: Jun 02 2015 &#45; 17:27</text>
<text text-anchor="start" x="88.2798" y="156.4" font-family="Times,serif" font-size="13.00">Generated by RailRoady 1.3.0</text>
<text text-anchor="start" x="88.2798" y="169.4" font-family="Times,serif" font-size="13.00">http://railroady.prestonlee.com</text>
</g>
<!-- ApplicationController -->
<g id="node2" class="node"><title>ApplicationController</title>
<path fill="none" stroke="black" d="M-147.821,-161C-147.821,-161 -32.1792,-161 -32.1792,-161 -26.1792,-161 -20.1792,-167 -20.1792,-173 -20.1792,-173 -20.1792,-241 -20.1792,-241 -20.1792,-247 -26.1792,-253 -32.1792,-253 -32.1792,-253 -147.821,-253 -147.821,-253 -153.821,-253 -159.821,-247 -159.821,-241 -159.821,-241 -159.821,-173 -159.821,-173 -159.821,-167 -153.821,-161 -147.821,-161"/>
<text text-anchor="middle" x="-90" y="-237.8" font-family="Times,serif" font-size="14.00">ApplicationController</text>
<polyline fill="none" stroke="black" points="-159.821,-231 -20.1792,-231 "/>
<polyline fill="none" stroke="black" points="-159.821,-207 -20.1792,-207 "/>
<polyline fill="none" stroke="black" points="-159.821,-183 -20.1792,-183 "/>
<text text-anchor="start" x="-151.821" y="-167.8" font-family="Times,serif" font-size="14.00">_layout</text>
</g>
<!-- ProjectsController -->
<g id="node3" class="node"><title>ProjectsController</title>
<path fill="none" stroke="black" d="M91.6758,79C91.6758,79 186.324,79 186.324,79 192.324,79 198.324,73 198.324,67 198.324,67 198.324,-97 198.324,-97 198.324,-103 192.324,-109 186.324,-109 186.324,-109 91.6758,-109 91.6758,-109 85.6758,-109 79.6758,-103 79.6758,-97 79.6758,-97 79.6758,67 79.6758,67 79.6758,73 85.6758,79 91.6758,79"/>
<text text-anchor="middle" x="139" y="-93.8" font-family="Times,serif" font-size="14.00">ProjectsController</text>
<polyline fill="none" stroke="black" points="79.6758,-87 198.324,-87 "/>
<text text-anchor="start" x="87.6758" y="-71.8" font-family="Times,serif" font-size="14.00">create</text>
<text text-anchor="start" x="87.6758" y="-57.8" font-family="Times,serif" font-size="14.00">destroy</text>
<text text-anchor="start" x="87.6758" y="-43.8" font-family="Times,serif" font-size="14.00">index</text>
<text text-anchor="start" x="87.6758" y="-29.8" font-family="Times,serif" font-size="14.00">send_file</text>
<text text-anchor="start" x="87.6758" y="-15.8" font-family="Times,serif" font-size="14.00">show</text>
<text text-anchor="start" x="87.6758" y="-1.8" font-family="Times,serif" font-size="14.00">update</text>
<polyline fill="none" stroke="black" points="79.6758,5 198.324,5 "/>
<polyline fill="none" stroke="black" points="79.6758,29 198.324,29 "/>
<text text-anchor="start" x="87.6758" y="44.2" font-family="Times,serif" font-size="14.00">_layout</text>
<text text-anchor="start" x="87.6758" y="58.2" font-family="Times,serif" font-size="14.00">project_params</text>
<text text-anchor="start" x="87.6758" y="72.2" font-family="Times,serif" font-size="14.00">set_project</text>
</g>
<!-- StagesController -->
<g id="node4" class="node"><title>StagesController</title>
<path fill="none" stroke="black" d="M-52.0483,111C-52.0483,111 34.0483,111 34.0483,111 40.0483,111 46.0483,105 46.0483,99 46.0483,99 46.0483,-93 46.0483,-93 46.0483,-99 40.0483,-105 34.0483,-105 34.0483,-105 -52.0483,-105 -52.0483,-105 -58.0483,-105 -64.0483,-99 -64.0483,-93 -64.0483,-93 -64.0483,99 -64.0483,99 -64.0483,105 -58.0483,111 -52.0483,111"/>
<text text-anchor="middle" x="-9" y="-89.8" font-family="Times,serif" font-size="14.00">StagesController</text>
<polyline fill="none" stroke="black" points="-64.0483,-83 46.0483,-83 "/>
<text text-anchor="start" x="-56.0483" y="-67.8" font-family="Times,serif" font-size="14.00">create</text>
<text text-anchor="start" x="-56.0483" y="-53.8" font-family="Times,serif" font-size="14.00">destroy</text>
<text text-anchor="start" x="-56.0483" y="-39.8" font-family="Times,serif" font-size="14.00">edit</text>
<text text-anchor="start" x="-56.0483" y="-25.8" font-family="Times,serif" font-size="14.00">index</text>
<text text-anchor="start" x="-56.0483" y="-11.8" font-family="Times,serif" font-size="14.00">new</text>
<text text-anchor="start" x="-56.0483" y="2.2" font-family="Times,serif" font-size="14.00">show</text>
<text text-anchor="start" x="-56.0483" y="16.2" font-family="Times,serif" font-size="14.00">update</text>
<polyline fill="none" stroke="black" points="-64.0483,23 46.0483,23 "/>
<polyline fill="none" stroke="black" points="-64.0483,47 46.0483,47 "/>
<text text-anchor="start" x="-56.0483" y="62.2" font-family="Times,serif" font-size="14.00">_layout</text>
<text text-anchor="start" x="-56.0483" y="76.2" font-family="Times,serif" font-size="14.00">set_project</text>
<text text-anchor="start" x="-56.0483" y="90.2" font-family="Times,serif" font-size="14.00">set_stage</text>
<text text-anchor="start" x="-56.0483" y="104.2" font-family="Times,serif" font-size="14.00">stage_params</text>
</g>
<!-- StepsController -->
<g id="node5" class="node"><title>StepsController</title>
<path fill="none" stroke="black" d="M28.0586,-145C28.0586,-145 107.941,-145 107.941,-145 113.941,-145 119.941,-151 119.941,-157 119.941,-157 119.941,-265 119.941,-265 119.941,-271 113.941,-277 107.941,-277 107.941,-277 28.0586,-277 28.0586,-277 22.0586,-277 16.0586,-271 16.0586,-265 16.0586,-265 16.0586,-157 16.0586,-157 16.0586,-151 22.0586,-145 28.0586,-145"/>
<text text-anchor="middle" x="68" y="-261.8" font-family="Times,serif" font-size="14.00">StepsController</text>
<polyline fill="none" stroke="black" points="16.0586,-255 119.941,-255 "/>
<text text-anchor="start" x="24.0586" y="-239.8" font-family="Times,serif" font-size="14.00">run</text>
<text text-anchor="start" x="24.0586" y="-225.8" font-family="Times,serif" font-size="14.00">send_file</text>
<polyline fill="none" stroke="black" points="16.0586,-219 119.941,-219 "/>
<polyline fill="none" stroke="black" points="16.0586,-195 119.941,-195 "/>
<text text-anchor="start" x="24.0586" y="-179.8" font-family="Times,serif" font-size="14.00">_layout</text>
<text text-anchor="start" x="24.0586" y="-165.8" font-family="Times,serif" font-size="14.00">set_step</text>
<text text-anchor="start" x="24.0586" y="-151.8" font-family="Times,serif" font-size="14.00">stage_params</text>
</g>
<!-- UsersController -->
<g id="node6" class="node"><title>UsersController</title>
<path fill="none" stroke="black" d="M156.286,-145C156.286,-145 237.714,-145 237.714,-145 243.714,-145 249.714,-151 249.714,-157 249.714,-157 249.714,-335 249.714,-335 249.714,-341 243.714,-347 237.714,-347 237.714,-347 156.286,-347 156.286,-347 150.286,-347 144.286,-341 144.286,-335 144.286,-335 144.286,-157 144.286,-157 144.286,-151 150.286,-145 156.286,-145"/>
<text text-anchor="middle" x="197" y="-331.8" font-family="Times,serif" font-size="14.00">UsersController</text>
<polyline fill="none" stroke="black" points="144.286,-325 249.714,-325 "/>
<text text-anchor="start" x="152.286" y="-309.8" font-family="Times,serif" font-size="14.00">create</text>
<text text-anchor="start" x="152.286" y="-295.8" font-family="Times,serif" font-size="14.00">destroy</text>
<text text-anchor="start" x="152.286" y="-281.8" font-family="Times,serif" font-size="14.00">edit</text>
<text text-anchor="start" x="152.286" y="-267.8" font-family="Times,serif" font-size="14.00">index</text>
<text text-anchor="start" x="152.286" y="-253.8" font-family="Times,serif" font-size="14.00">new</text>
<text text-anchor="start" x="152.286" y="-239.8" font-family="Times,serif" font-size="14.00">show</text>
<text text-anchor="start" x="152.286" y="-225.8" font-family="Times,serif" font-size="14.00">update</text>
<polyline fill="none" stroke="black" points="144.286,-219 249.714,-219 "/>
<polyline fill="none" stroke="black" points="144.286,-195 249.714,-195 "/>
<text text-anchor="start" x="152.286" y="-179.8" font-family="Times,serif" font-size="14.00">_layout</text>
<text text-anchor="start" x="152.286" y="-165.8" font-family="Times,serif" font-size="14.00">set_user</text>
<text text-anchor="start" x="152.286" y="-151.8" font-family="Times,serif" font-size="14.00">user_params</text>
</g>
</g>
</svg>
