<?xml version="1.0" encoding="UTF-8" standalone="no"?>
<!DOCTYPE svg PUBLIC "-//W3C//DTD SVG 1.1//EN"
 "http://www.w3.org/Graphics/SVG/1.1/DTD/svg11.dtd">
<!-- Generated by graphviz version 2.38.0 (20140413.2041)
 -->
<!-- Title: models_diagram Pages: 1 -->
<svg width="458pt" height="373pt"
 viewBox="0.00 0.00 458.13 373.00" xmlns="http://www.w3.org/2000/svg" xmlns:xlink="http://www.w3.org/1999/xlink">
<g id="graph0" class="graph" transform="scale(1 1) rotate(0) translate(4 369)">
<title>models_diagram</title>
<polygon fill="white" stroke="none" points="-4,4 -4,-369 454.133,-369 454.133,4 -4,4"/>
<!-- _diagram_info -->
<g id="node1" class="node"><title>_diagram_info</title>
<text text-anchor="start" x="8" y="-350.6" font-family="Times,serif" font-size="13.00">Models diagram</text>
<text text-anchor="start" x="8" y="-337.6" font-family="Times,serif" font-size="13.00">Date: Jun 02 2015 &#45; 17:27</text>
<text text-anchor="start" x="8" y="-324.6" font-family="Times,serif" font-size="13.00">Generated by RailRoady 1.3.0</text>
<text text-anchor="start" x="8" y="-311.6" font-family="Times,serif" font-size="13.00">http://railroady.prestonlee.com</text>
</g>
<!-- AttachFile -->
<g id="node2" class="node"><title>AttachFile</title>
<ellipse fill="none" stroke="black" cx="228.72" cy="-18" rx="47.3736" ry="18"/>
<text text-anchor="middle" x="228.72" y="-13.8" font-family="Times,serif" font-size="14.00">AttachFile</text>
</g>
<!-- Project -->
<g id="node3" class="node"><title>Project</title>
<ellipse fill="none" stroke="black" cx="228.72" cy="-335" rx="35.3129" ry="18"/>
<text text-anchor="middle" x="228.72" y="-330.8" font-family="Times,serif" font-size="14.00">Project</text>
</g>
<!-- Stage -->
<g id="node4" class="node"><title>Stage</title>
<ellipse fill="none" stroke="black" cx="228.72" cy="-250" rx="29.5104" ry="18"/>
<text text-anchor="middle" x="228.72" y="-245.8" font-family="Times,serif" font-size="14.00">Stage</text>
</g>
<!-- Project&#45;&gt;Stage -->
<g id="edge1" class="edge"><title>Project&#45;&gt;Stage</title>
<path fill="none" stroke="#3de8e3" d="M228.72,-308.621C228.72,-298.992 228.72,-287.992 228.72,-278.202"/>
<ellipse fill="none" stroke="#3de8e3" cx="228.72" cy="-312.802" rx="4" ry="4"/>
<polygon fill="#3de8e3" stroke="#3de8e3" points="228.72,-278.176 233.22,-268.176 228.72,-273.176 228.72,-268.176 228.72,-268.176 228.72,-268.176 228.72,-273.176 224.22,-268.176 228.72,-278.176 228.72,-278.176"/>
</g>
<!-- Task -->
<g id="node6" class="node"><title>Task</title>
<ellipse fill="none" stroke="black" cx="228.72" cy="-177" rx="27" ry="18"/>
<text text-anchor="middle" x="228.72" y="-172.8" font-family="Times,serif" font-size="14.00">Task</text>
</g>
<!-- Stage&#45;&gt;Task -->
<g id="edge2" class="edge"><title>Stage&#45;&gt;Task</title>
<path fill="none" stroke="#a7b200" d="M228.72,-223.791C228.72,-217.832 228.72,-211.45 228.72,-205.399"/>
<ellipse fill="none" stroke="#a7b200" cx="228.72" cy="-227.813" rx="4" ry="4"/>
<polygon fill="#a7b200" stroke="#a7b200" points="228.72,-205.029 233.22,-195.029 228.72,-200.029 228.72,-195.029 228.72,-195.029 228.72,-195.029 228.72,-200.029 224.22,-195.029 228.72,-205.029 228.72,-205.029"/>
</g>
<!-- Step -->
<g id="node5" class="node"><title>Step</title>
<ellipse fill="none" stroke="black" cx="228.72" cy="-104" rx="27" ry="18"/>
<text text-anchor="middle" x="228.72" y="-99.8" font-family="Times,serif" font-size="14.00">Step</text>
</g>
<!-- Step&#45;&gt;AttachFile -->
<g id="edge3" class="edge"><title>Step&#45;&gt;AttachFile</title>
<path fill="none" stroke="#73af48" d="M228.72,-77.2567C228.72,-67.4415 228.72,-56.2256 228.72,-46.2729"/>
<ellipse fill="none" stroke="#73af48" cx="228.72" cy="-81.5951" rx="4" ry="4"/>
<polygon fill="#73af48" stroke="#73af48" points="228.72,-46.0952 233.22,-36.0951 228.72,-41.0952 228.72,-36.0952 228.72,-36.0952 228.72,-36.0952 228.72,-41.0952 224.22,-36.0952 228.72,-46.0952 228.72,-46.0952"/>
<text text-anchor="middle" x="240.389" y="-56.8" font-family="Times,serif" font-size="14.00">files</text>
</g>
<!-- Task&#45;&gt;Step -->
<g id="edge4" class="edge"><title>Task&#45;&gt;Step</title>
<path fill="none" stroke="#502084" d="M228.72,-150.791C228.72,-144.832 228.72,-138.45 228.72,-132.399"/>
<ellipse fill="none" stroke="#502084" cx="228.72" cy="-154.813" rx="4" ry="4"/>
<polygon fill="#502084" stroke="#502084" points="228.72,-132.029 233.22,-122.029 228.72,-127.029 228.72,-122.029 228.72,-122.029 228.72,-122.029 228.72,-127.029 224.22,-122.029 228.72,-132.029 228.72,-132.029"/>
</g>
<!-- User -->
<g id="node7" class="node"><title>User</title>
<ellipse fill="none" stroke="black" cx="308.72" cy="-335" rx="27" ry="18"/>
<text text-anchor="middle" x="308.72" y="-330.8" font-family="Times,serif" font-size="14.00">User</text>
</g>
<!-- UserDetail -->
<g id="node8" class="node"><title>UserDetail</title>
<ellipse fill="none" stroke="black" cx="401.72" cy="-335" rx="48.3255" ry="18"/>
<text text-anchor="middle" x="401.72" y="-330.8" font-family="Times,serif" font-size="14.00">UserDetail</text>
</g>
</g>
</svg>
