<?xml version="1.0" encoding="UTF-8" standalone="no"?>
<!DOCTYPE svg PUBLIC "-//W3C//DTD SVG 1.1//EN"
 "http://www.w3.org/Graphics/SVG/1.1/DTD/svg11.dtd">
<!-- Generated by graphviz version 2.38.0 (20140413.2041)
 -->
<!-- Title: models_diagram Pages: 1 -->
<svg width="677pt" height="926pt"
 viewBox="0.00 0.00 677.41 926.00" xmlns="http://www.w3.org/2000/svg" xmlns:xlink="http://www.w3.org/1999/xlink">
<g id="graph0" class="graph" transform="scale(1 1) rotate(0) translate(4 922)">
<title>models_diagram</title>
<polygon fill="white" stroke="none" points="-4,4 -4,-922 673.412,-922 673.412,4 -4,4"/>
<!-- _diagram_info -->
<g id="node1" class="node"><title>_diagram_info</title>
<text text-anchor="start" x="8" y="-820.1" font-family="Times,serif" font-size="13.00">Models diagram</text>
<text text-anchor="start" x="8" y="-807.1" font-family="Times,serif" font-size="13.00">Date: Jun 02 2015 &#45; 17:27</text>
<text text-anchor="start" x="8" y="-794.1" font-family="Times,serif" font-size="13.00">Generated by RailRoady 1.3.0</text>
<text text-anchor="start" x="8" y="-781.1" font-family="Times,serif" font-size="13.00">http://railroady.prestonlee.com</text>
</g>
<!-- AttachFile -->
<g id="node2" class="node"><title>AttachFile</title>
<path fill="none" stroke="black" d="M222.379,-0.5C222.379,-0.5 335.061,-0.5 335.061,-0.5 341.061,-0.5 347.061,-6.5 347.061,-12.5 347.061,-12.5 347.061,-102.5 347.061,-102.5 347.061,-108.5 341.061,-114.5 335.061,-114.5 335.061,-114.5 222.379,-114.5 222.379,-114.5 216.379,-114.5 210.379,-108.5 210.379,-102.5 210.379,-102.5 210.379,-12.5 210.379,-12.5 210.379,-6.5 216.379,-0.5 222.379,-0.5"/>
<text text-anchor="middle" x="278.72" y="-99.3" font-family="Times,serif" font-size="14.00">AttachFile</text>
<polyline fill="none" stroke="black" points="210.379,-92.5 347.061,-92.5 "/>
<text text-anchor="start" x="218.379" y="-77.3" font-family="Times,serif" font-size="14.00">_id :BSON::ObjectId</text>
<text text-anchor="start" x="218.379" y="-63.3" font-family="Times,serif" font-size="14.00">created_at :Time</text>
<text text-anchor="start" x="218.379" y="-49.3" font-family="Times,serif" font-size="14.00">file :Object</text>
<text text-anchor="start" x="218.379" y="-35.3" font-family="Times,serif" font-size="14.00">organization :Symbol</text>
<text text-anchor="start" x="218.379" y="-21.3" font-family="Times,serif" font-size="14.00">step_id :Object</text>
<text text-anchor="start" x="218.379" y="-7.3" font-family="Times,serif" font-size="14.00">updated_at :Time</text>
</g>
<!-- Project -->
<g id="node3" class="node"><title>Project</title>
<path fill="none" stroke="black" d="M205.936,-691.5C205.936,-691.5 351.505,-691.5 351.505,-691.5 357.505,-691.5 363.505,-697.5 363.505,-703.5 363.505,-703.5 363.505,-905.5 363.505,-905.5 363.505,-911.5 357.505,-917.5 351.505,-917.5 351.505,-917.5 205.936,-917.5 205.936,-917.5 199.936,-917.5 193.936,-911.5 193.936,-905.5 193.936,-905.5 193.936,-703.5 193.936,-703.5 193.936,-697.5 199.936,-691.5 205.936,-691.5"/>
<text text-anchor="middle" x="278.72" y="-902.3" font-family="Times,serif" font-size="14.00">Project</text>
<polyline fill="none" stroke="black" points="193.936,-895.5 363.505,-895.5 "/>
<text text-anchor="start" x="201.936" y="-880.3" font-family="Times,serif" font-size="14.00">_env :Symbol</text>
<text text-anchor="start" x="201.936" y="-866.3" font-family="Times,serif" font-size="14.00">_id :BSON::ObjectId</text>
<text text-anchor="start" x="201.936" y="-852.3" font-family="Times,serif" font-size="14.00">_status :Symbol</text>
<text text-anchor="start" x="201.936" y="-838.3" font-family="Times,serif" font-size="14.00">bourse :Symbol</text>
<text text-anchor="start" x="201.936" y="-824.3" font-family="Times,serif" font-size="14.00">category :String</text>
<text text-anchor="start" x="201.936" y="-810.3" font-family="Times,serif" font-size="14.00">created_at :Time</text>
<text text-anchor="start" x="201.936" y="-796.3" font-family="Times,serif" font-size="14.00">description :String</text>
<text text-anchor="start" x="201.936" y="-782.3" font-family="Times,serif" font-size="14.00">jingdong_recipe_id :Object</text>
<text text-anchor="start" x="201.936" y="-768.3" font-family="Times,serif" font-size="14.00">name :String</text>
<text text-anchor="start" x="201.936" y="-754.3" font-family="Times,serif" font-size="14.00">normal_recipe_id :Object</text>
<text text-anchor="start" x="201.936" y="-740.3" font-family="Times,serif" font-size="14.00">platform :String</text>
<text text-anchor="start" x="201.936" y="-726.3" font-family="Times,serif" font-size="14.00">platform_zh :String</text>
<text text-anchor="start" x="201.936" y="-712.3" font-family="Times,serif" font-size="14.00">recipe :Symbol</text>
<text text-anchor="start" x="201.936" y="-698.3" font-family="Times,serif" font-size="14.00">updated_at :Time</text>
</g>
<!-- Stage -->
<g id="node4" class="node"><title>Stage</title>
<path fill="none" stroke="black" d="M223.029,-525.5C223.029,-525.5 334.412,-525.5 334.412,-525.5 340.412,-525.5 346.412,-531.5 346.412,-537.5 346.412,-537.5 346.412,-641.5 346.412,-641.5 346.412,-647.5 340.412,-653.5 334.412,-653.5 334.412,-653.5 223.029,-653.5 223.029,-653.5 217.029,-653.5 211.029,-647.5 211.029,-641.5 211.029,-641.5 211.029,-537.5 211.029,-537.5 211.029,-531.5 217.029,-525.5 223.029,-525.5"/>
<text text-anchor="middle" x="278.72" y="-638.3" font-family="Times,serif" font-size="14.00">Stage</text>
<polyline fill="none" stroke="black" points="211.029,-631.5 346.412,-631.5 "/>
<text text-anchor="start" x="219.029" y="-616.3" font-family="Times,serif" font-size="14.00">_id :BSON::ObjectId</text>
<text text-anchor="start" x="219.029" y="-602.3" font-family="Times,serif" font-size="14.00">_status :Symbol</text>
<text text-anchor="start" x="219.029" y="-588.3" font-family="Times,serif" font-size="14.00">created_at :Time</text>
<text text-anchor="start" x="219.029" y="-574.3" font-family="Times,serif" font-size="14.00">description :String</text>
<text text-anchor="start" x="219.029" y="-560.3" font-family="Times,serif" font-size="14.00">name :String</text>
<text text-anchor="start" x="219.029" y="-546.3" font-family="Times,serif" font-size="14.00">project_id :Object</text>
<text text-anchor="start" x="219.029" y="-532.3" font-family="Times,serif" font-size="14.00">updated_at :Time</text>
</g>
<!-- Project&#45;&gt;Stage -->
<g id="edge1" class="edge"><title>Project&#45;&gt;Stage</title>
<path fill="none" stroke="#767040" d="M278.72,-683.227C278.72,-676.732 278.72,-670.307 278.72,-664.05"/>
<ellipse fill="none" stroke="#767040" cx="278.72" cy="-687.386" rx="4" ry="4"/>
<polygon fill="#767040" stroke="#767040" points="278.72,-663.696 283.22,-653.696 278.72,-658.696 278.72,-653.696 278.72,-653.696 278.72,-653.696 278.72,-658.696 274.22,-653.697 278.72,-663.696 278.72,-663.696"/>
</g>
<!-- Task -->
<g id="node6" class="node"><title>Task</title>
<path fill="none" stroke="black" d="M223.029,-359.5C223.029,-359.5 334.412,-359.5 334.412,-359.5 340.412,-359.5 346.412,-365.5 346.412,-371.5 346.412,-371.5 346.412,-475.5 346.412,-475.5 346.412,-481.5 340.412,-487.5 334.412,-487.5 334.412,-487.5 223.029,-487.5 223.029,-487.5 217.029,-487.5 211.029,-481.5 211.029,-475.5 211.029,-475.5 211.029,-371.5 211.029,-371.5 211.029,-365.5 217.029,-359.5 223.029,-359.5"/>
<text text-anchor="middle" x="278.72" y="-472.3" font-family="Times,serif" font-size="14.00">Task</text>
<polyline fill="none" stroke="black" points="211.029,-465.5 346.412,-465.5 "/>
<text text-anchor="start" x="219.029" y="-450.3" font-family="Times,serif" font-size="14.00">_id :BSON::ObjectId</text>
<text text-anchor="start" x="219.029" y="-436.3" font-family="Times,serif" font-size="14.00">_status :Symbol</text>
<text text-anchor="start" x="219.029" y="-422.3" font-family="Times,serif" font-size="14.00">created_at :Time</text>
<text text-anchor="start" x="219.029" y="-408.3" font-family="Times,serif" font-size="14.00">description :String</text>
<text text-anchor="start" x="219.029" y="-394.3" font-family="Times,serif" font-size="14.00">name :String</text>
<text text-anchor="start" x="219.029" y="-380.3" font-family="Times,serif" font-size="14.00">stage_id :Object</text>
<text text-anchor="start" x="219.029" y="-366.3" font-family="Times,serif" font-size="14.00">updated_at :Time</text>
</g>
<!-- Stage&#45;&gt;Task -->
<g id="edge2" class="edge"><title>Stage&#45;&gt;Task</title>
<path fill="none" stroke="#c0399a" d="M278.72,-516.977C278.72,-510.742 278.72,-504.424 278.72,-498.172"/>
<ellipse fill="none" stroke="#c0399a" cx="278.72" cy="-521.093" rx="4" ry="4"/>
<polygon fill="#c0399a" stroke="#c0399a" points="278.72,-497.738 283.22,-487.738 278.72,-492.738 278.72,-487.738 278.72,-487.738 278.72,-487.738 278.72,-492.738 274.22,-487.738 278.72,-497.738 278.72,-497.738"/>
</g>
<!-- Step -->
<g id="node5" class="node"><title>Step</title>
<path fill="none" stroke="black" d="M223.029,-165.5C223.029,-165.5 334.412,-165.5 334.412,-165.5 340.412,-165.5 346.412,-171.5 346.412,-177.5 346.412,-177.5 346.412,-309.5 346.412,-309.5 346.412,-315.5 340.412,-321.5 334.412,-321.5 334.412,-321.5 223.029,-321.5 223.029,-321.5 217.029,-321.5 211.029,-315.5 211.029,-309.5 211.029,-309.5 211.029,-177.5 211.029,-177.5 211.029,-171.5 217.029,-165.5 223.029,-165.5"/>
<text text-anchor="middle" x="278.72" y="-306.3" font-family="Times,serif" font-size="14.00">Step</text>
<polyline fill="none" stroke="black" points="211.029,-299.5 346.412,-299.5 "/>
<text text-anchor="start" x="219.029" y="-284.3" font-family="Times,serif" font-size="14.00">_id :BSON::ObjectId</text>
<text text-anchor="start" x="219.029" y="-270.3" font-family="Times,serif" font-size="14.00">_status :Symbol</text>
<text text-anchor="start" x="219.029" y="-256.3" font-family="Times,serif" font-size="14.00">created_at :Time</text>
<text text-anchor="start" x="219.029" y="-242.3" font-family="Times,serif" font-size="14.00">description :String</text>
<text text-anchor="start" x="219.029" y="-228.3" font-family="Times,serif" font-size="14.00">job_id :String</text>
<text text-anchor="start" x="219.029" y="-214.3" font-family="Times,serif" font-size="14.00">name :String</text>
<text text-anchor="start" x="219.029" y="-200.3" font-family="Times,serif" font-size="14.00">result :Hash</text>
<text text-anchor="start" x="219.029" y="-186.3" font-family="Times,serif" font-size="14.00">task_id :Object</text>
<text text-anchor="start" x="219.029" y="-172.3" font-family="Times,serif" font-size="14.00">updated_at :Time</text>
</g>
<!-- Step&#45;&gt;AttachFile -->
<g id="edge3" class="edge"><title>Step&#45;&gt;AttachFile</title>
<path fill="none" stroke="#9ff213" d="M278.72,-157.25C278.72,-146.384 278.72,-135.392 278.72,-124.884"/>
<ellipse fill="none" stroke="#9ff213" cx="278.72" cy="-161.267" rx="4" ry="4"/>
<polygon fill="#9ff213" stroke="#9ff213" points="278.72,-124.56 283.22,-114.56 278.72,-119.56 278.72,-114.56 278.72,-114.56 278.72,-114.56 278.72,-119.56 274.22,-114.56 278.72,-124.56 278.72,-124.56"/>
<text text-anchor="middle" x="290.389" y="-135.8" font-family="Times,serif" font-size="14.00">files</text>
</g>
<!-- Task&#45;&gt;Step -->
<g id="edge4" class="edge"><title>Task&#45;&gt;Step</title>
<path fill="none" stroke="#d88fb6" d="M278.72,-351.395C278.72,-345.004 278.72,-338.485 278.72,-331.977"/>
<ellipse fill="none" stroke="#d88fb6" cx="278.72" cy="-355.493" rx="4" ry="4"/>
<polygon fill="#d88fb6" stroke="#d88fb6" points="278.72,-331.78 283.22,-321.78 278.72,-326.78 278.72,-321.78 278.72,-321.78 278.72,-321.78 278.72,-326.78 274.22,-321.78 278.72,-331.78 278.72,-331.78"/>
</g>
<!-- User -->
<g id="node7" class="node"><title>User</title>
<path fill="none" stroke="black" d="M393.029,-782.5C393.029,-782.5 504.412,-782.5 504.412,-782.5 510.412,-782.5 516.412,-788.5 516.412,-794.5 516.412,-794.5 516.412,-814.5 516.412,-814.5 516.412,-820.5 510.412,-826.5 504.412,-826.5 504.412,-826.5 393.029,-826.5 393.029,-826.5 387.029,-826.5 381.029,-820.5 381.029,-814.5 381.029,-814.5 381.029,-794.5 381.029,-794.5 381.029,-788.5 387.029,-782.5 393.029,-782.5"/>
<text text-anchor="middle" x="448.72" y="-811.3" font-family="Times,serif" font-size="14.00">User</text>
<polyline fill="none" stroke="black" points="381.029,-804.5 516.412,-804.5 "/>
<text text-anchor="start" x="389.029" y="-789.3" font-family="Times,serif" font-size="14.00">_id :BSON::ObjectId</text>
</g>
<!-- UserDetail -->
<g id="node8" class="node"><title>UserDetail</title>
<path fill="none" stroke="black" d="M546.029,-740.5C546.029,-740.5 657.412,-740.5 657.412,-740.5 663.412,-740.5 669.412,-746.5 669.412,-752.5 669.412,-752.5 669.412,-856.5 669.412,-856.5 669.412,-862.5 663.412,-868.5 657.412,-868.5 657.412,-868.5 546.029,-868.5 546.029,-868.5 540.029,-868.5 534.029,-862.5 534.029,-856.5 534.029,-856.5 534.029,-752.5 534.029,-752.5 534.029,-746.5 540.029,-740.5 546.029,-740.5"/>
<text text-anchor="middle" x="601.72" y="-853.3" font-family="Times,serif" font-size="14.00">UserDetail</text>
<polyline fill="none" stroke="black" points="534.029,-846.5 669.412,-846.5 "/>
<text text-anchor="start" x="542.029" y="-831.3" font-family="Times,serif" font-size="14.00">_id :BSON::ObjectId</text>
<text text-anchor="start" x="542.029" y="-817.3" font-family="Times,serif" font-size="14.00">amount :Float</text>
<text text-anchor="start" x="542.029" y="-803.3" font-family="Times,serif" font-size="14.00">created_at :Time</text>
<text text-anchor="start" x="542.029" y="-789.3" font-family="Times,serif" font-size="14.00">product_code :String</text>
<text text-anchor="start" x="542.029" y="-775.3" font-family="Times,serif" font-size="14.00">updated_at :Time</text>
<text text-anchor="start" x="542.029" y="-761.3" font-family="Times,serif" font-size="14.00">user_id_card :String</text>
<text text-anchor="start" x="542.029" y="-747.3" font-family="Times,serif" font-size="14.00">user_name :String</text>
</g>
</g>
</svg>
